<svg width="23" height="22" viewBox="0 0 23 22" fill="none" xmlns="http://www.w3.org/2000/svg">
<path fill-rule="evenodd" clip-rule="evenodd" d="M10.0832 2.71032C10.6813 1.56623 12.3187 1.56623 12.9168 2.71032L21.7772 19.6608C22.3336 20.7252 21.5615 22 20.3605 22H2.63953C1.43851 22 0.666397 20.7252 1.22277 19.6608L10.0832 2.71032Z" fill="white"/>
<path d="M12.2409 11.473C12.2409 12.3354 12.2113 13.1182 12.1521 13.8215C12.0929 14.5247 12.0189 15.2254 11.93 15.9236H11.0714C10.9825 15.2254 10.9085 14.5247 10.8493 13.8215C10.7901 13.1182 10.7605 12.3354 10.7605 11.473V8.57777H12.2409V11.473Z" fill="#FF6363"/>
<path d="M12.4926 18.4184C12.4926 18.6956 12.4038 18.9368 12.2261 19.1422C12.0485 19.3475 11.8067 19.4502 11.5007 19.4502C11.1947 19.4502 10.9529 19.3475 10.7753 19.1422C10.5976 18.9368 10.5088 18.6956 10.5088 18.4184C10.5088 18.1412 10.5976 17.8999 10.7753 17.6946C10.9529 17.4892 11.1947 17.3866 11.5007 17.3866C11.8067 17.3866 12.0485 17.4892 12.2261 17.6946C12.4038 17.8999 12.4926 18.1412 12.4926 18.4184Z" fill="#FF6363"/>
</svg>
